<svg xmlns="http://www.w3.org/2000/svg" viewBox="0 0 100 100">
  <polygon points="32,10 25,32 40,28" fill="#1A1A1A"/>
  <polygon points="44,5 36,28 50,26" fill="#1A1A1A"/>
  <polygon points="56,5 48,26 62,26" fill="#1A1A1A"/>
  <polygon points="68,10 58,28 72,30" fill="#1A1A1A"/>
  <polygon points="76,20 63,36 78,36" fill="#1A1A1A"/>
  <circle cx="50" cy="58" r="38" fill="#FDDBB4"/>
  <ellipse cx="50" cy="30" rx="30" ry="15" fill="#1A1A1A"/>
  <path d="M 13 48 Q 18 36 23 42" stroke="#1A1A1A" stroke-width="9" fill="none" stroke-linecap="round"/>
  <ellipse cx="35" cy="55" rx="12" ry="12" fill="white"/>
  <ellipse cx="65" cy="55" rx="12" ry="12" fill="white"/>
  <circle cx="36" cy="56" r="8" fill="#1A1A1A"/>
  <circle cx="66" cy="56" r="8" fill="#1A1A1A"/>
  <circle cx="38" cy="53" r="3" fill="white"/>
  <circle cx="68" cy="53" r="3" fill="white"/>
  <line x1="23" y1="44" x2="45" y2="42" stroke="#1A1A1A" stroke-width="4" stroke-linecap="round"/>
  <line x1="55" y1="42" x2="77" y2="44" stroke="#1A1A1A" stroke-width="4" stroke-linecap="round"/>
  <ellipse cx="50" cy="64" rx="4.5" ry="3.5" fill="#E8A878"/>
  <path d="M 35 74 Q 50 86 65 74" stroke="#CC7744" stroke-width="3.5" fill="none" stroke-linecap="round"/>
  <path d="M 18 64 L 27 68" stroke="#CC4444" stroke-width="3" stroke-linecap="round"/>
  <path d="M 73 68 L 82 64" stroke="#CC4444" stroke-width="3" stroke-linecap="round"/>
</svg>
