<svg xmlns="http://www.w3.org/2000/svg" viewBox="0 0 100 100">
  <ellipse cx="17" cy="30" rx="14" ry="21" fill="#4299E1" transform="rotate(-28,17,30)"/>
  <ellipse cx="83" cy="30" rx="14" ry="21" fill="#4299E1" transform="rotate(28,83,30)"/>
  <ellipse cx="17" cy="30" rx="8" ry="14" fill="#63B3F5" transform="rotate(-28,17,30)"/>
  <ellipse cx="83" cy="30" rx="8" ry="14" fill="#63B3F5" transform="rotate(28,83,30)"/>
  <circle cx="50" cy="55" r="40" fill="#4299E1"/>
  <ellipse cx="50" cy="65" rx="36" ry="30" fill="#4299E1"/>
  <ellipse cx="35" cy="47" rx="14" ry="16" fill="#1A1A2E"/>
  <ellipse cx="65" cy="47" rx="14" ry="16" fill="#1A1A2E"/>
  <ellipse cx="35" cy="47" rx="10" ry="12" fill="#2B4AC4"/>
  <ellipse cx="65" cy="47" rx="10" ry="12" fill="#2B4AC4"/>
  <circle cx="37" cy="44" r="4" fill="white"/>
  <circle cx="67" cy="44" r="4" fill="white"/>
  <ellipse cx="50" cy="60" rx="8" ry="5.5" fill="#2B6CB0"/>
  <circle cx="46" cy="60" r="3" fill="#1A365D"/>
  <circle cx="54" cy="60" r="3" fill="#1A365D"/>
  <path d="M 32 72 Q 50 86 68 72" stroke="#1A365D" stroke-width="3.5" fill="none" stroke-linecap="round"/>
  <line x1="40" y1="72" x2="39" y2="79" stroke="white" stroke-width="3" stroke-linecap="round"/>
  <line x1="50" y1="74" x2="50" y2="81" stroke="white" stroke-width="3" stroke-linecap="round"/>
  <line x1="60" y1="72" x2="61" y2="79" stroke="white" stroke-width="3" stroke-linecap="round"/>
  <circle cx="23" cy="68" r="4.5" fill="#2B6CB0" opacity="0.6"/>
  <circle cx="77" cy="68" r="4.5" fill="#2B6CB0" opacity="0.6"/>
</svg>
