<svg xmlns="http://www.w3.org/2000/svg" viewBox="0 0 100 100">
  <ellipse cx="22" cy="18" rx="10" ry="19" fill="#6B7B8E" transform="rotate(-22,22,18)"/>
  <ellipse cx="78" cy="18" rx="10" ry="19" fill="#6B7B8E" transform="rotate(22,78,18)"/>
  <ellipse cx="22" cy="19" rx="6" ry="12" fill="#9AAABB" transform="rotate(-22,22,19)"/>
  <ellipse cx="78" cy="19" rx="6" ry="12" fill="#9AAABB" transform="rotate(22,78,19)"/>
  <circle cx="50" cy="58" r="42" fill="#6B7B8E"/>
  <ellipse cx="50" cy="70" rx="26" ry="22" fill="#D8CFC0"/>
  <path d="M 38 56 Q 50 52 62 56" stroke="#9AAABB" stroke-width="2.5" fill="none"/>
  <path d="M 36 63 Q 50 59 64 63" stroke="#9AAABB" stroke-width="2" fill="none"/>
  <circle cx="35" cy="46" r="13" fill="white"/>
  <circle cx="65" cy="46" r="13" fill="white"/>
  <circle cx="37" cy="48" r="9" fill="#1f2937"/>
  <circle cx="67" cy="48" r="9" fill="#1f2937"/>
  <circle cx="35" cy="45" r="3.5" fill="white"/>
  <circle cx="65" cy="45" r="3.5" fill="white"/>
  <ellipse cx="50" cy="57" rx="5" ry="3.5" fill="#1f2937"/>
  <path d="M 37 66 Q 50 76 63 66" stroke="#1f2937" stroke-width="2.5" fill="none" stroke-linecap="round"/>
  <line x1="8" y1="54" x2="34" y2="58" stroke="#1f2937" stroke-width="1.5"/>
  <line x1="8" y1="62" x2="34" y2="63" stroke="#1f2937" stroke-width="1.5"/>
  <line x1="66" y1="58" x2="92" y2="54" stroke="#1f2937" stroke-width="1.5"/>
  <line x1="66" y1="63" x2="92" y2="62" stroke="#1f2937" stroke-width="1.5"/>
</svg>
